<?xml version="1.0" encoding="utf-8"?>
<!-- Generator: Adobe Illustrator 23.0.2, SVG Export Plug-In . SVG Version: 6.00 Build 0)  -->
<svg version="1.1" id="Capa_1" xmlns="http://www.w3.org/2000/svg" xmlns:xlink="http://www.w3.org/1999/xlink" x="0px" y="0px"
	 viewBox="0 0 512 512" style="enable-background:new 0 0 512 512;" xml:space="preserve">
<style type="text/css">
	.st0{fill:#FFFFFF;}
</style>
<g>
	<path class="st0" d="M157.9,509.6c2.4,1.5,5.2,2.4,8.1,2.4h180c2.9,0,5.7-0.8,8.1-2.4c4.4-2.8,108.5-70.4,96.8-165.5
		c-5.6-45.7-35.4-95.1-64.3-142.9C359.2,155.9,331,109.1,331,75V15c0-8.3-6.7-15-15-15H196c-8.3,0-15,6.7-15,15v60
		c0,34.1-28.3,80.9-55.6,126.2C96.5,249,66.7,298.5,61.1,344.2C52.6,412.8,108.2,478,157.9,509.6L157.9,509.6z M341.3,482H170.6
		c-13-9.2-59.2-44.2-75-91.4c87.9-3.6,167.7-30.2,220.7-52.8c40.2-17.2,70.7-34.2,87.5-44.3c8.8,19,15.3,37.3,17.3,54.3
		C429.4,415.6,358,470.2,341.3,482z M90.9,347.8c4.8-39.3,33-86,60.2-131.1C181.9,165.7,211,117.4,211,75V30h90v45
		c0,42.4,29.1,90.7,59.9,141.7c10,16.6,20.1,33.4,29.2,50c-15.5,9.4-46,26.7-86.2,43.8c-51.3,21.8-128.9,47.6-213.6,50.3
		C90.1,356.5,90.3,352.2,90.9,347.8z"/>
</g>
</svg>
